<svg width="260" height="260" viewBox="0 0 260 260" fill="none" xmlns="http://www.w3.org/2000/svg">
<g clip-path="url(#clip0_1123_533)">
<path d="M25.7839 204.779C16.3204 204.779 11.5886 200.047 11.5886 190.584C11.5886 188.563 11.8013 186.011 12.2266 182.928C12.7583 179.738 13.3431 176.282 13.9811 172.56C14.7254 168.839 15.4166 165.17 16.0546 161.555C16.6926 157.94 17.2242 154.643 17.6495 151.666C18.1812 148.689 18.447 146.403 18.447 144.808C18.447 140.023 16.4799 137.63 12.5456 137.63H-0.533203V122.318H12.5456C16.4799 122.318 18.447 119.926 18.447 115.141C18.447 113.546 18.1812 111.26 17.6495 108.283C17.2242 105.305 16.6926 102.009 16.0546 98.3938C15.4166 94.7785 14.7254 91.1101 13.9811 87.3885C13.3431 83.6668 12.7583 80.2642 12.2266 77.1806C11.8013 73.9907 11.5886 71.3855 11.5886 69.3652C11.5886 59.9017 16.3204 55.1699 25.7839 55.1699H53.8555V70.4817H36.1513C33.2803 70.4817 31.8448 71.864 31.8448 74.6286C31.8448 75.692 32.0575 77.4464 32.4828 79.8921C32.9082 82.3377 33.4398 85.1023 34.0778 88.1859C34.7158 91.2696 35.3538 94.4595 35.9918 97.7558C36.6298 100.946 37.1614 103.976 37.5868 106.847C38.0121 109.718 38.2248 112.111 38.2248 114.025C38.2248 123.169 34.0246 127.954 25.6244 128.379V131.569C34.0246 131.995 38.2248 136.78 38.2248 145.924C38.2248 147.838 38.0121 150.231 37.5868 153.102C37.1614 155.972 36.6298 159.056 35.9918 162.352C35.3538 165.542 34.7158 168.679 34.0778 171.763C33.4398 174.846 32.9082 177.611 32.4828 180.057C32.0575 182.396 31.8448 184.15 31.8448 185.32C31.8448 188.085 33.2803 189.467 36.1513 189.467H53.8555V204.779H25.7839Z" fill="#B4B4B4"/>
<path d="M81.9116 185.001L108.548 74.9476H150.815L177.451 185.001H153.048L131.675 94.4064H126.411L105.039 185.001H81.9116ZM102.008 160.598L102.327 144.329H154.802L155.281 160.598H102.008ZM94.3524 92.0139V74.9476H124.178V92.0139H94.3524Z" fill="#B4B4B4"/>
<path d="M232.225 55.1699C241.689 55.1699 246.42 59.9017 246.42 69.3652C246.42 71.3855 246.155 73.9907 245.623 77.1806C245.198 80.2642 244.666 83.6668 244.028 87.3885C243.39 91.1101 242.699 94.7785 241.954 98.3938C241.316 102.009 240.732 105.305 240.2 108.283C239.775 111.26 239.562 113.546 239.562 115.141C239.562 119.926 241.529 122.318 245.463 122.318H258.542V137.63H245.463C241.529 137.63 239.562 140.023 239.562 144.808C239.562 146.403 239.775 148.689 240.2 151.666C240.732 154.643 241.316 157.94 241.954 161.555C242.699 165.17 243.39 168.839 244.028 172.56C244.666 176.282 245.198 179.738 245.623 182.928C246.155 186.011 246.42 188.563 246.42 190.584C246.42 200.047 241.689 204.779 232.225 204.779H204.313V189.467H222.017C224.782 189.467 226.164 188.085 226.164 185.32C226.164 184.15 225.952 182.396 225.526 180.057C225.101 177.611 224.569 174.846 223.931 171.763C223.4 168.679 222.815 165.542 222.177 162.352C221.539 159.056 221.007 155.972 220.582 153.102C220.156 150.231 219.944 147.838 219.944 145.924C219.944 136.78 224.091 131.995 232.385 131.569V128.379C224.091 127.954 219.944 123.169 219.944 114.025C219.944 112.111 220.156 109.718 220.582 106.847C221.007 103.976 221.539 100.946 222.177 97.7558C222.815 94.4595 223.4 91.2696 223.931 88.1859C224.569 85.1023 225.101 82.3377 225.526 79.8921C225.952 77.4464 226.164 75.692 226.164 74.6286C226.164 71.864 224.782 70.4817 222.017 70.4817H204.313V55.1699H232.225Z" fill="#B4B4B4"/>
</g>
<defs>
<clipPath id="clip0_1123_533">
<rect width="260" height="260" fill="white"/>
</clipPath>
</defs>
</svg>
