<svg width="260" height="260" viewBox="0 0 260 260" fill="none" xmlns="http://www.w3.org/2000/svg">
<g clip-path="url(#clip0_1116_333)">
<path d="M26.5492 202.988C17.3155 202.988 12.6986 198.371 12.6986 189.137C12.6986 187.166 12.9061 184.676 13.3211 181.667C13.8398 178.555 14.4105 175.183 15.033 171.552C15.7592 167.92 16.4336 164.341 17.0561 160.814C17.6786 157.286 18.1973 154.07 18.6123 151.165C19.1311 148.26 19.3905 146.029 19.3905 144.473C19.3905 139.804 17.4711 137.47 13.6323 137.47H0.871094V122.53H13.6323C17.4711 122.53 19.3905 120.195 19.3905 115.527C19.3905 113.97 19.1311 111.74 18.6123 108.835C18.1973 105.93 17.6786 102.714 17.0561 99.1861C16.4336 95.6586 15.7592 92.0792 15.033 88.448C14.4105 84.8167 13.8398 81.4967 13.3211 78.488C12.9061 75.3755 12.6986 72.8336 12.6986 70.8623C12.6986 61.6286 17.3155 57.0117 26.5492 57.0117H53.9392V71.9517H36.6648C33.8636 71.9517 32.463 73.3005 32.463 75.998C32.463 77.0355 32.6705 78.7473 33.0855 81.1336C33.5005 83.5198 34.0192 86.2173 34.6417 89.2261C35.2642 92.2348 35.8867 95.3473 36.5092 98.5636C37.1317 101.676 37.6505 104.633 38.0655 107.434C38.4805 110.235 38.688 112.57 38.688 114.437C38.688 123.36 34.5898 128.029 26.3936 128.444V131.556C34.5898 131.971 38.688 136.64 38.688 145.562C38.688 147.43 38.4805 149.764 38.0655 152.565C37.6505 155.367 37.1317 158.375 36.5092 161.592C35.8867 164.704 35.2642 167.765 34.6417 170.774C34.0192 173.782 33.5005 176.48 33.0855 178.866C32.6705 181.149 32.463 182.86 32.463 184.002C32.463 186.699 33.8636 188.048 36.6648 188.048H53.9392V202.988H26.5492Z" fill="#3C3C3C"/>
<path d="M80.069 183.69L116.33 76.3092H143.564L179.98 183.69H157.57L130.958 98.8748H128.002L101.545 183.69H80.069ZM99.6778 160.191L100.145 143.384H158.037L158.504 160.191H99.6778Z" fill="#3C3C3C"/>
<path d="M233.449 57.0117C242.683 57.0117 247.3 61.6286 247.3 70.8623C247.3 72.8336 247.04 75.3755 246.522 78.488C246.107 81.4967 245.588 84.8167 244.965 88.448C244.343 92.0792 243.668 95.6586 242.942 99.1861C242.32 102.714 241.749 105.93 241.23 108.835C240.815 111.74 240.608 113.97 240.608 115.527C240.608 120.195 242.527 122.53 246.366 122.53H259.127V137.47H246.366C242.527 137.47 240.608 139.804 240.608 144.473C240.608 146.029 240.815 148.26 241.23 151.165C241.749 154.07 242.32 157.286 242.942 160.814C243.668 164.341 244.343 167.92 244.965 171.552C245.588 175.183 246.107 178.555 246.522 181.667C247.04 184.676 247.3 187.166 247.3 189.137C247.3 198.371 242.683 202.988 233.449 202.988H206.215V188.048H223.489C226.186 188.048 227.535 186.699 227.535 184.002C227.535 182.86 227.328 181.149 226.913 178.866C226.498 176.48 225.979 173.782 225.356 170.774C224.838 167.765 224.267 164.704 223.645 161.592C223.022 158.375 222.503 155.367 222.088 152.565C221.673 149.764 221.466 147.43 221.466 145.562C221.466 136.64 225.512 131.971 233.605 131.556V128.444C225.512 128.029 221.466 123.36 221.466 114.437C221.466 112.57 221.673 110.235 222.088 107.434C222.503 104.633 223.022 101.676 223.645 98.5636C224.267 95.3473 224.838 92.2348 225.356 89.2261C225.979 86.2173 226.498 83.5198 226.913 81.1336C227.328 78.7473 227.535 77.0355 227.535 75.998C227.535 73.3005 226.186 71.9517 223.489 71.9517H206.215V57.0117H233.449Z" fill="#3C3C3C"/>
</g>
<defs>
<clipPath id="clip0_1116_333">
<rect width="260" height="260" fill="white"/>
</clipPath>
</defs>
</svg>
